#!OML:ASF X:\für Bonn\!DataBase\2005_08_12_Daniel\c3d\Daniel.ASF
:FULLY-SPECIFIED
:DEGREES
16
root 2.1039 17.3774 -25.0892 170.996 181.969 -186.623
lowerback 14.4988 -0.712603 9.76347
upperback 5.5517 0.363459 -0.623382
thorax -2.12242 0.286574 -6.246
lowerneck 5.39089 1.85139 -3.80437
upperneck 25.1041 2.62605 -0.0360441
head 6.75275 0.91965 0.741596
rclavicle 1.33186e-014 -2.3059e-014
rhumerus -17.4225 -19.0678 -79.4234
rradius 16.6922
rwrist 32.322
rhand -20.9815 16.5664
rfingers 7.12502
rthumb 5.39218 -13.345
lclavicle 1.33186e-014 -2.3059e-014
lhumerus -32.2846 24.8736 76.3888
lradius 26.6487
lwrist -21.8411
lhand -10.7686 -8.24603
lfingers 7.12502
lthumb 15.2434 21.1723
rfemur 28.4399 4.27148 31.1269
rtibia -5.725e-014
rfoot -16.9789 -1.55214
rtoes -8.83003
lfemur -24.7064 -19.6747 -5.71709
ltibia 27.4102
lfoot -18.8086 13.3047
ltoes -9.95611
17
root 2.11925 17.3705 -24.9568 171.186 182.035 -186.71
lowerback 14.3503 -0.637721 9.71314
upperback 5.45122 0.444718 -0.604451
thorax -2.13723 0.321684 -6.20858
lowerneck 5.28917 1.83508 -3.87877
upperneck 25.2757 2.60418 0.0163111
head 6.82542 0.902951 0.773164
rclavicle 1.30204e-014 -1.74931e-014
rhumerus -17.0191 -19.9623 -79.3476
rradius 16.3498
rwrist 33.4629
rhand -21.041 16.4572
rfingers 7.12502
rthumb 5.33476 -13.4557
lclavicle 1.30204e-014 -1.74931e-014
lhumerus -32.3737 25.5415 76.0962
lradius 26.2145
lwrist -22.4703
lhand -10.7616 -8.39141
lfingers 7.12502
lthumb 15.2502 21.0264
rfemur 28.7094 4.12894 31.093
rtibia -7.63333e-014
rfoot -17.3034 -1.32678
rtoes -8.9239
lfemur -25.0175 -20.4139 -5.27149
ltibia 26.9992
lfoot -19.7085 14.5694
ltoes -9.72742
18
root 2.13661 17.35 -24.8243 171.376 182.101 -186.8
lowerback 14.219 -0.573539 9.65756
upperback 5.34683 0.513018 -0.595853
thorax -2.16767 0.349511 -6.17735
lowerneck 5.2613 1.82933 -3.89257
upperneck 25.3871 2.59592 0.0414305
head 6.86668 0.897363 0.784683
rclavicle -8.74653e-015 -1.59028e-014
rhumerus -16.6644 -20.5682 -79.3367
rradius 16.0714
rwrist 34.3197
rhand -21.0627 16.3658
rfingers 7.12502
rthumb 5.31381 -13.5476
lclavicle -8.74653e-015 -1.59028e-014
lhumerus -32.4993 26.3261 75.7115
lradius 25.7396
lwrist -23.2894
lhand -10.758 -8.53488
lfingers 7.12502
lthumb 15.2536 20.8827
rfemur 29.0013 3.99031 31.05
rtibia -6.36111e-015
rfoot -17.6452 -1.05953
rtoes -9.06947
lfemur -25.3752 -20.956 -4.88281
ltibia 26.7775
lfoot -20.5114 15.6979
ltoes -9.3297
19
root 2.15465 17.331 -24.6914 171.563 182.151 -186.853
lowerback 14.1015 -0.502055 9.56529
upperback 5.2455 0.586858 -0.607877
thorax -2.20185 0.379974 -6.14828
lowerneck 5.19969 1.80089 -3.84838
upperneck 25.5153 2.56302 0.0413355
head 6.92057 0.88301 0.777692
rclavicle -1.09332e-015 1.82882e-014
rhumerus -16.3724 -21.3221 -79.3171
rradius 15.7898
rwrist 35.2926
rhand -21.1869 16.3861
rfingers 7.12502
rthumb 5.19387 -13.5303
lclavicle -1.09332e-015 1.82882e-014
lhumerus -32.653 27.1396 75.2946
lradius 25.2647
lwrist -24.1449
lhand -10.7393 -8.66028
lfingers 7.12502
lthumb 15.2717 20.7559
rfemur 29.2834 3.8464 30.9586
rtibia 1.90833e-014
rfoot -17.9422 -0.8036
rtoes -9.16593
lfemur -25.7356 -21.2595 -4.61946
ltibia 26.7118
lfoot -20.841 16.5811
ltoes -8.02167
20
root 2.17277 17.3105 -24.5572 171.725 182.227 -186.919
lowerback 14.0279 -0.433095 9.44497
upperback 5.14808 0.658851 -0.601029
thorax -2.2569 0.40829 -6.08328
lowerneck 5.12876 1.7919 -3.80803
upperneck 25.6595 2.55557 0.0491611
head 6.98082 0.880694 0.775155
rclavicle 9.54166e-015 -1.59028e-015
rhumerus -16.1216 -21.9556 -79.3065
rradius 15.5212
rwrist 36.1237
rhand -21.3166 16.4979
rfingers 7.12502
rthumb 5.06863 -13.4215
lclavicle 9.54166e-015 -1.59028e-015
lhumerus -32.847 27.954 74.8576
lradius 24.8134
lwrist -25.0579
lhand -10.6932 -8.63131
lfingers 7.12502
lthumb 15.316 20.7815
rfemur 29.598 3.72492 30.8785
rtibia -1.27222e-014
rfoot -18.2166 -0.559233
rtoes -9.16927
lfemur -26.1114 -21.4286 -4.39901
ltibia 26.8501
lfoot -20.6815 17.322
ltoes -6.41342
21
root 2.19078 17.2921 -24.4237 171.901 182.269 -186.974
lowerback 13.9401 -0.363085 9.33688
upperback 5.06966 0.730313 -0.631636
thorax -2.28316 0.439041 -6.06479
lowerneck 5.02677 1.75856 -3.68284
upperneck 25.7847 2.5153 0.0519646
head 7.04125 0.87035 0.755339
rclavicle 3.27995e-015 -3.33958e-014
rhumerus -15.9205 -22.7652 -79.3148
rradius 15.296
rwrist 37.0976
rhand -21.3833 16.6925
rfingers 7.12502
rthumb 5.00423 -13.2284
lclavicle 3.27995e-015 -3.33958e-014
lhumerus -33.0221 28.7492 74.386
lradius 24.3971
lwrist -25.9742
lhand -10.5353 -8.52189
lfingers 7.12502
lthumb 15.4681 20.8793
rfemur 29.8694 3.57448 30.7815
rtibia -6.67916e-014
rfoot -18.4461 -0.33645
rtoes -9.30258
lfemur -26.411 -21.2307 -4.32332
ltibia 27.0835
lfoot -20.0902 17.6329
ltoes -5.91672
22
root 2.2088 17.2732 -24.2891 172.039 182.34 -186.987
lowerback 13.8824 -0.284244 9.14103
upperback 5.0185 0.804389 -0.641716
thorax -2.29903 0.471798 -5.97484
lowerneck 4.92374 1.73628 -3.62042
upperneck 25.8959 2.49262 0.0452435
head 7.09668 0.862327 0.74366
rclavicle 4.17448e-015 6.36111e-015
rhumerus -15.7521 -23.367 -79.327
rradius 15.1038
rwrist 37.8562
rhand -21.5757 16.9318
rfingers 7.12502
rthumb 4.81845 -12.9934
lclavicle 4.17448e-015 6.36111e-015
lhumerus -33.2203 29.6345 73.9139
lradius 23.9902
lwrist -26.9559
lhand -10.365 -8.39669
lfingers 7.12502
lthumb 15.6321 20.9917
rfemur 30.1764 3.45709 30.6379
rtibia -6.99722e-014
rfoot -18.6151 -0.0851166
rtoes -9.41827
lfemur -26.5645 -20.7604 -4.426
ltibia 27.3788
lfoot -19.1636 17.6454
ltoes -5.75625
23
root 2.22817 17.2518 -24.1544 172.177 182.393 -186.999
lowerback 13.8328 -0.218667 8.94298
upperback 4.97154 0.861095 -0.662699
thorax -2.31779 0.496108 -5.89272
lowerneck 4.84589 1.71782 -3.51311
upperneck 25.9811 2.47784 0.0106404
head 7.13997 0.860547 0.714943
rclavicle -1.39149e-015 -3.4191e-014
rhumerus -15.6064 -24.0393 -79.3599
rradius 14.8888
rwrist 38.6933
rhand -21.7259 17.3024
rfingers 7.12502
rthumb 4.67346 -12.626
lclavicle -1.39149e-015 -3.4191e-014
lhumerus -33.4307 30.6423 73.3611
lradius 23.5462
lwrist -28.1073
lhand -10.2333 -8.19974
lfingers 7.12502
lthumb 15.7589 21.1787
rfemur 30.4743 3.32766 30.4789
rtibia -1.01778e-013
rfoot -18.7309 0.174587
rtoes -9.40646
lfemur -26.7183 -20.1314 -4.583
ltibia 27.7194
lfoot -18.0449 17.3985
ltoes -6.12013
24
root 2.24721 17.2263 -24.0203 172.278 182.434 -186.998
lowerback 13.7894 -0.157261 8.72454
upperback 4.98553 0.907511 -0.68666
thorax -2.27743 0.520119 -5.79989
lowerneck 4.7354 1.70118 -3.45065
upperneck 26.0313 2.45613 0.0273099
head 7.17583 0.855698 0.710429
rclavicle 2.85256e-014 -1.03368e-014
rhumerus -15.4372 -24.5937 -79.4218
rradius 14.7352
rwrist 39.3481
rhand -21.8407 17.6809
rfingers 7.12502
rthumb 4.56262 -12.25
lclavicle 2.85256e-014 -1.03368e-014
lhumerus -33.5499 31.6482 72.8489
lradius 23.0984
lwrist -29.1918
lhand -10.0246 -7.99585
lfingers 7.12502
lthumb 15.96 21.3666
rfemur 30.8128 3.18404 30.3045
rtibia -8.5875e-014
rfoot -18.7837 0.428497
rtoes -9.28163
lfemur -26.807 -19.308 -4.82291
ltibia 28.0566
lfoot -16.6636 16.8599
ltoes -6.82574
